<?xml version="1.0" encoding="UTF-8"?>
<svg id="Layer_2" data-name="Layer 2" xmlns="http://www.w3.org/2000/svg" xmlns:xlink="http://www.w3.org/1999/xlink" viewBox="0 0 80.13 88.27">
  <defs>
    <style>
      .cls-1 {
        fill: url(#linear-gradient);
      }

      .cls-1, .cls-2, .cls-3, .cls-4, .cls-5, .cls-6, .cls-7, .cls-8, .cls-9, .cls-10, .cls-11, .cls-12, .cls-13, .cls-14, .cls-15 {
        stroke-width: 0px;
      }

      .cls-2 {
        fill: url(#linear-gradient-6);
      }

      .cls-3 {
        fill: #068b4a;
      }

      .cls-4 {
        fill: url(#linear-gradient-5);
      }

      .cls-5 {
        fill: #fbef03;
      }

      .cls-6 {
        fill: #dd5626;
      }

      .cls-7 {
        fill: url(#linear-gradient-2);
      }

      .cls-8 {
        fill: #f5f4dd;
      }

      .cls-9 {
        fill: url(#linear-gradient-7);
      }

      .cls-10 {
        fill: url(#linear-gradient-3);
      }

      .cls-11 {
        fill: url(#linear-gradient-9);
      }

      .cls-12 {
        fill: #383181;
      }

      .cls-13 {
        fill: url(#linear-gradient-8);
      }

      .cls-14 {
        fill: #fff;
      }

      .cls-15 {
        fill: url(#linear-gradient-4);
      }
    </style>
    <linearGradient id="linear-gradient" x1="32.84" y1="52.41" x2="47.46" y2="52.41" gradientUnits="userSpaceOnUse">
      <stop offset="0" stop-color="#256ab0"/>
      <stop offset="1" stop-color="#98b8e7"/>
    </linearGradient>
    <linearGradient id="linear-gradient-2" x1="55.42" y1="60.19" x2="67.97" y2="60.19" xlink:href="#linear-gradient"/>
    <linearGradient id="linear-gradient-3" x1="18.88" y1="56.02" x2="37.43" y2="56.02" xlink:href="#linear-gradient"/>
    <linearGradient id="linear-gradient-4" x1="12.15" y1="60.2" x2="24.87" y2="60.2" xlink:href="#linear-gradient"/>
    <linearGradient id="linear-gradient-5" x1="14.72" y1="63.7" x2="37.91" y2="63.7" xlink:href="#linear-gradient"/>
    <linearGradient id="linear-gradient-6" x1="42.88" y1="55.99" x2="61.41" y2="55.99" xlink:href="#linear-gradient"/>
    <linearGradient id="linear-gradient-7" x1="29.65" y1="60.86" x2="50.61" y2="60.86" xlink:href="#linear-gradient"/>
    <linearGradient id="linear-gradient-8" x1="42.53" y1="63.78" x2="66.52" y2="63.78" xlink:href="#linear-gradient"/>
    <linearGradient id="linear-gradient-9" x1="40.23" y1="57.24" x2="40.06" y2="16.89" gradientUnits="userSpaceOnUse">
      <stop offset=".21" stop-color="#f8b40b"/>
      <stop offset=".31" stop-color="#fcd20a"/>
      <stop offset=".37" stop-color="#ffe00a"/>
    </linearGradient>
  </defs>
  <g id="Layer_1-2" data-name="Layer 1">
    <g>
      <g>
        <g>
          <g>
            <g>
              <path class="cls-6" d="M50.86,25.34c0-.2,0-.4-.02-.61-.03-1.06-.74-.34-1.12.04-.59.58-1.18,1.17-1.76,1.75-1.2,1.19-2.4,2.38-3.6,3.58-.02.02-.03.03-.05.05-.06.07-.11.15-.11.24.01.16.21.24.37.27,2.01.46,3.94,1.26,5.69,2.34.14.09.34.17.46.05.05-.05.06-.12.07-.2,0-.02,0-.03,0-.05.1-2.49.13-4.99.07-7.48Z"/>
              <path class="cls-6" d="M21.23,52.82c0-.06,0-.12-.02-.17-.39-2.01-.43-4.08-.11-6.1.13-.83-.32-.71-.86-.47-.78.36-1.57.68-2.36,1.02l-4.71,2.04c-.16.07-.35.19-.3.36.03.11.14.16.24.21,2.58,1.1,5.16,2.21,7.74,3.31.08.04.18.07.27.03.08-.04.11-.13.11-.22Z"/>
              <path class="cls-6" d="M23.84,38.72s-.05,0-.08,0c-1.48-.03-2.96-.04-4.44,0-.78.01-1.56.04-2.33.07-.66.03-1.41-.02-2.08.09-.11.02-.17.14-.11.24.29.48.98.99,1.34,1.36.53.55,1.06,1.11,1.6,1.66,1.05,1.08,2.09,2.16,3.16,3.22,0,0,0,0,.01.01.08.08.16.16.31.11.12-.05.21-.16.24-.29.56-2.24,1.41-4.42,2.52-6.45-.05,0-.09,0-.14,0ZM21.55,38.88s-.01,0-.02,0c-.02-.04.06,0,.02,0ZM21.11,38.93s-.02,0-.02.01c0,0,0,0,0,0,0,0,.02,0,.03,0Z"/>
              <path class="cls-6" d="M29.08,33.28s0,0,0,0c-.02-.04-.06-.06-.1-.08,0,0,0,0,0,0-.01,0-.03-.01-.04-.02-1.61-.67-3.22-1.34-4.83-2-.79-.32-1.58-.64-2.38-.96-.23-.09-.68-.4-.91-.17-.23.23.01.77.11,1.01,1.02,2.43,2.05,4.86,3.07,7.29,0,0,0,.01,0,.02.02.06.05.11.1.15.12.07.26-.04.35-.15.51-.62.92-1.32,1.45-1.94.92-1.08,2.15-1.85,3.09-2.91.06-.07.12-.15.08-.23ZM23.75,36.76s0,0,0,0h0s0,0,0,0ZM28.1,33.52s0,0,0,0c0,0,0,0,0,0h0Z"/>
              <path class="cls-6" d="M35.76,29.96c-1.74-1.82-3.55-3.59-5.41-5.29-.43-.39-.85-.61-.86.16,0,2.7-.01,5.39-.02,8.09,0,.06,0,.13.05.17.07.06.18.01.26-.04,1.96-1.24,4.14-2.13,6.4-2.64-.14-.15-.28-.3-.42-.45Z"/>
              <path class="cls-6" d="M67.44,49.38c-.17-.13-.37-.22-.56-.3-2.4-1.03-4.79-2.06-7.19-3.09-.12-.05-.41-.22-.53-.13-.14.11-.03.55,0,.69.35,2.06.31,4.19-.1,6.24-.02.08,0,.17.06.23.08.09.17.05.25.02l8.05-3.46c.08-.03.09-.14.02-.19h0Z"/>
              <path class="cls-6" d="M59.56,30.05s0,0-.01-.01c-.05-.06-.14-.04-.22-.02-2.74.79-5.42,1.87-7.98,3.12-.03.01-.06.03-.09.05-.05.03-.09.06-.11.11-.09.17.08.36.24.48,1.65,1.25,3.13,2.73,4.38,4.38.1.13.25.27.39.2.05-.03.09-.08.12-.13h0s.02-.04.03-.06c1.14-2.44,2.18-4.93,3.12-7.45.06-.17.13-.34.15-.52,0-.05,0-.11-.02-.15Z"/>
              <path class="cls-6" d="M65.36,38.98h-.06c-1.55-.08-3.1-.15-4.64-.23-.78-.04-1.57-.08-2.35-.12-.4-.02-.8-.04-1.2-.06-.23-.01-.43-.02-.52.09-.05.07-.07.18-.02.35.04.16.13.31.21.45,1.04,1.76,1.78,3.7,2.18,5.71.03.14.11.33.25.31.06,0,.11-.06.15-.1l.03-.03c2.03-2.04,4.07-4.08,6.1-6.12.15-.15.07-.26-.12-.27ZM60.8,43.87s-.03.03-.05.04c.02-.01.04-.03.05-.04h0Z"/>
              <path class="cls-6" d="M43.61,30.02s-.01-.04-.02-.06c-.53-1.37-1.08-2.73-1.65-4.09-.28-.66-.56-1.32-.85-1.98-.14-.32-.54-1.72-.95-1.7-.4.02-.76,1.35-.9,1.67-.3.7-.61,1.4-.91,2.09-.58,1.34-1.15,2.67-1.72,4.02,0,0,0,0,0,.01-.05.13-.09.3.03.38.06.04.15.03.22.01,2.07-.4,4.2-.42,6.28-.06.19.03.45.02.5-.15,0,0,0-.02,0-.03,0-.04,0-.09-.02-.13ZM43.42,30.28s0,0,0-.01c0,0,.01,0,.02,0,0,0,0,.01,0,.02Z"/>
            </g>
            <g>
              <path class="cls-1" d="M47,51.6c-.05-.02-.11-.04-.16-.05-1-.3-2.01-.6-3.01-.89-.89-.27-1.79-.53-2.72-.66-1.32-.18-2.4.12-3.65.48-1.31.38-2.64.72-3.97,1.03-.24.05-.51.14-.61.36-.08.19,0,.41.16.55s.34.22.54.29c1.4.53,2.8,1.07,4.21,1.6.7.27,1.41.53,2.16.56.9.03,1.77-.29,2.62-.6,1.43-.53,2.85-1.06,4.28-1.59.31-.11.67-.32.63-.65-.03-.22-.24-.35-.45-.43Z"/>
              <path class="cls-7" d="M67.96,56.94c-.01-.08-.03-.16-.08-.23-.05-.08-.13-.14-.21-.18-.03-.02-.07-.04-.1-.05-1.48-.72-3.28-.88-4.79-.19-1.75.8-3.5,1.61-5.24,2.43-.26.12-.52.24-.78.37-.34.16-.69.32-.99.55-.19.14-.39.36-.34.6.05.24.32.36.55.45,3.55,1.25,7.09,2.49,10.64,3.74.06.02.12.04.18.06.25.08.52.12.74-.01.3-.18.36-.57.38-.92.03-.55.03-1.1.04-1.65,0-1.57,0-3.15,0-4.72,0-.07,0-.15-.01-.22ZM67.74,60.91s-.01,0-.02,0c0,0,0,0,.02,0h0Z"/>
              <path class="cls-10" d="M37.41,55.47c-.06-.2-.24-.31-.44-.39-.05-.02-.1-.04-.15-.06-1.63-.58-3.25-1.17-4.88-1.75-.74-.27-1.5-.54-2.28-.65-1.51-.21-3.14.43-4.6.79-1.81.45-3.62.9-5.43,1.36-.32.08-.7.22-.75.55-.06.36.33.61.66.77,2.18,1,4.35,2.01,6.53,3.01.38.18.78.36,1.2.37.41.02.8-.12,1.18-.26,2.73-.97,5.47-1.94,8.2-2.91.39-.14.86-.43.75-.83ZM26.01,53.38s0,0,0-.01c.01,0,.02,0,.03,0,0,0-.01.01-.02.02ZM27.44,59.44s.01-.02.02-.03c0,.01.01.02.02.03-.01,0-.03,0-.04,0Z"/>
              <path class="cls-15" d="M24.83,59.98c-.03-.08-.08-.16-.14-.22-.13-.13-.3-.22-.47-.3-1.51-.74-3.01-1.48-4.52-2.21-1.1-.54-2.22-1.08-3.42-1.34-1.24-.27-2.36.02-3.53.46-.02,0-.05.02-.07.03-.15.06-.29.13-.38.26-.1.14-.11.32-.11.49-.07,2.17-.04,4.34.09,6.51.02.36.09.78.42.93.19.08.41.04.61-.01.07-.02.14-.03.21-.05.66-.18,1.31-.4,1.95-.63,2.92-1.04,5.84-2.08,8.77-3.11.26-.09.55-.22.62-.49.02-.1.01-.2-.03-.29ZM12.34,60.72s0,0,0-.01c0,0,.01,0,.02,0,0,0-.01,0-.02.01ZM12.52,59.81s0-.01,0-.01c0,0,0,0,.01,0,0,0,0,0-.01,0ZM17.51,62.94s-.03.01-.04,0c0,0,0,0,0,0,.02-.01.03-.03.05-.04,0,.01,0,.02,0,.03Z"/>
              <path class="cls-4" d="M37.89,65.93c-.02-.06-.04-.12-.08-.17-.13-.18-.34-.28-.54-.38-1.82-.86-3.72-1.76-5.58-2.63-1.65-.78-3.62-2.12-5.53-1.74-1.27.25-2.55.9-3.77,1.35-2.56.95-5.11,1.89-7.67,2.84,0,0,0,0-.01,0,.05.48.45.86.89,1.03.36.14.75.17,1.13.17.09,0,.19,0,.28,0,6.78.01,13.56.03,20.35.04.14,0,.29,0,.4-.09.13-.1.16-.27.12-.43ZM16.85,66.25h.01s0,0-.01,0ZM20,66.2s-.04,0-.06-.01c.02,0,.05,0,.07,0,0,0,0,0,0,0ZM23.32,66.34s.01-.04.02-.06c.02.01.04.03.06.06h-.08ZM23.58,66.34c.08-.02.12-.08.27-.13-.08.06-.17.11-.27.13ZM24.63,61.92s0,0,0,0c0,0,0,0,.01,0,0,0,0,0,0,0ZM27.88,66.34s-.01-.05-.02-.07c.03.01.05.03.07.06-.02,0-.03,0-.05,0ZM29.67,66.25h-.02s.02,0,.03-.01c0,0,0,0-.01.01ZM32.93,66.34s.03-.03.05-.04c0,.01.02.03.03.04h-.08Z"/>
              <path class="cls-2" d="M61.4,55.32c-.05-.32-.44-.46-.76-.54-2.86-.68-5.71-1.35-8.57-2.03-.64-.15-1.36-.33-2.02-.14s-1.37.51-2.04.76c-1.48.54-2.95,1.08-4.43,1.63-.34.12-.75.36-.7.72.04.29.36.44.63.53,2.68.96,5.36,1.92,8.04,2.88.48.17.96.34,1.47.32.51-.02.99-.24,1.46-.46,2.09-.97,4.18-1.94,6.28-2.91.32-.15.7-.39.65-.74,0,0,0,0,0-.01Z"/>
              <path class="cls-9" d="M50.52,60.13s-.06-.1-.1-.14c-.17-.18-.42-.27-.65-.36-1.78-.67-3.57-1.34-5.35-2.01-1.09-.41-2.2-.82-3.36-1.02-.58-.1-1.19-.17-1.77-.11-.58.06-1.13.35-1.68.54-2.43.87-4.86,1.75-7.29,2.62-.24.09-.51.2-.62.44-.1.24,0,.52.19.71.19.18.43.28.67.38,2.38.95,4.7,2.03,6.97,3.22.83.44,1.7.9,2.63.87.69-.02,1.33-.32,1.96-.6,2.68-1.24,5.37-2.47,8.05-3.71.14-.06.29-.14.38-.27.11-.16.08-.38-.02-.55ZM37.54,59.54h0s0,0,0,0c0,0,0,0,0,0Z"/>
              <path class="cls-13" d="M66.48,65.6c-.06-.08-.17-.14-.27-.17-.21-.08-.43-.16-.68-.25-2.3-.85-6.2-2.26-8.11-2.98-1.14-.43-2.31-.86-3.53-1.02-1.39-.19-2.31.17-3.54.74-2.44,1.14-4.87,2.29-7.29,3.48-.18.09-.37.19-.47.37-.05.09-.06.19-.03.29.06.18.23.22.38.24.64.11,1.28.11,1.93.11.71,0,1.47.02,2.27.05h18.47c.19-.1.39-.22.57-.34.07-.05.14-.09.2-.14.07-.06.14-.13.15-.22,0-.06-.01-.1-.04-.15ZM46.8,66.15s0-.05,0-.07c0,.02,0,.05,0,.07,0,0,0,0-.01,0ZM50.15,66.15s0,0-.01-.01c0,0,.02,0,.02,0,0,0,0,0-.01,0ZM53.2,66.34s0-.02,0-.02c0,0,.01.01.02.02h-.03ZM61.94,64.06s0,0,0-.01c0,0,0-.01,0-.02.01,0,.03,0,.04.01-.01,0-.03.01-.04.02Z"/>
            </g>
            <path class="cls-8" d="M21.03,53.09c-1.47-4.84-.09-10.64,3.52-15.5,3.77-5.09,9.27-7.89,15.49-7.89s11.44,2.6,15.19,7.13c3.81,4.61,5.36,10.64,4.23,16.54l-3.96-1.04c.95-4.98-.43-9.61-3.65-13.5-3.15-3.81-6.85-5.04-11.81-5.04s-8.85,1.39-12.02,5.66c-2.99,4.04-4.26,8.9-3.09,12.77l-3.91.87Z"/>
            <path class="cls-11" d="M56.31,49.14c0,1.13-.12,2.24-.34,3.3-5.59-1.4-12.26-3.06-13.65-3.41-2.48-.62-4.21,0-4.21,0l-13.71,3.32c-.21-1.04-.32-2.11-.32-3.21,0-8.9,7.21-16.11,16.11-16.11s16.11,7.21,16.11,16.11Z"/>
          </g>
          <g>
            <path class="cls-5" d="M41.05,0l12.62,7.31S12.98,30.93,12.84,31.02s-.19.17-.19.38.04,31.93.04,32.22.1.53.66.8,3.46,2.03,3.46,2.03H0V23.81L41.05,0Z"/>
            <path class="cls-3" d="M80.13,24.21v42.24h-16.9l2.3-1.27,1.28-.71.57-.32s.3-.16.3-.48V31.3s-.03-.17-.26-.31c-.23-.14-15.63-9.04-15.63-9.04l12.62-7.27,15.56,9.06s.17.08.17.47Z"/>
          </g>
        </g>
        <path class="cls-12" d="M32.7,47.3s.37.39.04.78h3.79s.32-.09,0-.24c-.32-.16-1.08.3-1.09-.78,0-1.08,0-1.88,0-1.88,0,0-.22.04-.24-.03-.02-.05.09-.14.2-.23.58-.47.67-.63.78-.59.11.04.07.23.15.52.04.15.13.38.91,1.14.21.2.48.46.83.75,0,0,1.14,1.34,2,1.34h2.32s.28-.05,0-.16-.51.1-1.08-.3c-.57-.41-3.37-3.08-4.15-3.97-.79-.89-.69-.49.53-1.7s2.17-2.06,2.41-2.18.52-.2.52-.2l-.27-.31h-2.06s-.23.11,0,.28c.23.17.29-.24.26.34-.2.56-3.1,3.28-3.1,3.28v-2.11s-.19,0-.21-.09c-.01-.05.06-.11.1-.14.32-.26.64-.47.86-.72.1-.12.17-.2.15-.25-.09-.19-1.31.28-1.35.18-.02-.06.31-.35.75-.44.3-.06.56-.02.64-.17.04-.07.02-.16,0-.21h-1.93c.03.16.21,1.02.13,1.16-.03.05-.07.06-.07.06s-.06,0-.13-.09c-.13-.17-.23-1.92-.25-2.33,0,0,.78.27,1.37-.68,0,0-1.12-.31-1.48.51,0,0-.33-1.25-.74-1.74,0,0,.62,1.68.63,2.5,0,0-.88-.8-2.09-.07,0,0,1.07.85,2,.28,0,0,.24.48-.02.49-.26,0-1.69-.05-1.04.3.36.12,1.11-.16,1.11.75s.1,1.8-.23,1.44c-.32-.27-1.1-.17-1.1-.17l-.09-.19s-.03-.09.22-.09.77-.34,1-.96c0,0-1.13-.04-1.3.81,0,0-1.08-1.47-1.26-1.64-.18-.16.09-.13.2-.3.1-.17.24-.42.17-.99,0,0-.83.46-.62,1.05,0,0-1.32-1.24-.48-.22.85,1.02,1.21,1.29.9,1.25s-.77-.16-1.23.5c0,0,1.03.29,1.32-.12s.85.9.85.9c0,0-.34-.05-.6.07s1.3.3,1.1,1.18c0,0-.31.03-.48-.21-.16-.24-1.31-.03-1.52.28,0,0,.66.18.92.4.27.23.87.09.93-.2.07-.28.65,1.36.59,2.32,0,0,.08.29-.27.01-.35-.27-.65-.61-1.73-.28,0,0,.97,1.07,1.66.72.44-.21.38,1.33.27,1.04-.1-.28-.4-.62-.23,0s-.25-.14-.17.35Z"/>
        <path class="cls-12" d="M42.7,48.08h3.92s.35-.11,0-.21-.84.15-1.04-.26-.24-.55-.23-1.35,0-1.04,0-1.04c0,0-.6.02-.15-.32s1.2-.77,1.2-.77c0,0-.96-.34-1.72.16-.41.31-.55-.16.44-.45,0,0,.17.01.17-.25,0-.33,0-2.58,0-2.58h-.71v2.23s.37.06.18.29-.43-.16-.43-.5.01-2.01.01-2.01c0,0-.03-.21.21-.22s.61,0,.61,0c0,0,.1.04.29-.12s.81-.76.81-.76c0,0-.78-.11-1.15.06-.14.08-.27-.26.17-.29s1.17-.34,2.09.85.42,3.26-1.18,3.32c0,0,.73.62,1.64.05s1.75-1.45,1.49-3.05-2.36-1.6-2.66-1.6h-2.27v.82s.48.04.15.29-.36-.19-.55-2.41c0,0,.74.23,1.47-.68,0,0-1.21-.3-1.52.48,0,0-.11.15-.12-.05s-.16-.92-.6-1.38c0,0,.51,1.84.55,2.16s-.17,0-.27-.12-1.01-.44-1.79.1c0,0,1.23.98,1.7.28,0,0,.3-.13.33.28s-.03.3-.18.27-1.15,0-1.15,0c0,0,.08.26.87.34.49.04.39.76.17.71s-1.02.26-1.19.75-.17-.42-1.24-1.53c0,0-.16-.16.07-.3s.36-.61.24-1.02c0,0-.75.55-.58.96s-1.11-1.02-.71-.32,1.6,1.46,1.16,1.45-.64-.17-1.32.51c0,0,.89.23,1.34-.11s.33.06.49.3.46.71.96.3,1-1.29.99-.63v.66s.11.87-.23.45-1.85-.14-1.85-.14c0,0,.94.45.99.86s-.16.29-.46.12-1.16.09-1.52.3.82.11,1.03.42.71-.3.95-.2.5,1.59.42,2.39c0,0-.6-.81-1.86-.34,0,0,1.32,1.16,1.63.5,0,0,.31-.28.26,1.21,0,0-.07.24-.1-.04s-.26-.58-.19-.18.22.93.04.69-.18-.13-.09.7Z"/>
      </g>
      <g>
        <path class="cls-14" d="M10.25,75.34v3.11c0,.08,0,.15.01.2,0,.05.03.1.08.14.04.04.11.08.2.1.09.03.21.06.36.08.09.02.14.08.14.18,0,.02,0,.07,0,.12,0,.06-.01.1-.02.14-.26-.02-.53-.03-.8-.04-.27-.01-.52-.02-.75-.02s-.49,0-.79.02c-.29.01-.57.03-.84.04-.02-.03-.02-.08-.02-.13v-.12c0-.12.04-.19.12-.2.17-.02.31-.05.41-.08.1-.03.18-.06.23-.1.05-.04.08-.09.1-.14.02-.05.02-.12.02-.2v-6.16c0-.08,0-.15-.02-.2-.02-.05-.05-.1-.1-.14-.05-.04-.12-.08-.23-.1-.1-.03-.24-.06-.41-.08-.08-.02-.12-.09-.12-.21v-.11s0-.09.02-.14c.26.02.54.03.84.04s.56.02.79.02.5,0,.8-.02c.3-.01.59-.03.85-.04,0,.04.01.09.02.14,0,.05,0,.09,0,.11,0,.11-.04.18-.12.21-.17.02-.31.05-.41.08-.1.03-.18.06-.23.1-.05.04-.09.09-.1.14-.01.05-.02.12-.02.2v2.84l2.67-2.67c.17-.16.26-.29.26-.42,0-.14-.18-.23-.55-.27-.09,0-.14-.09-.14-.26v-.09s0-.08.02-.12c.23.02.47.03.72.04.25.01.47.02.67.02.09,0,.19,0,.31,0,.11,0,.23,0,.35-.01.12,0,.23-.01.34-.02.11,0,.21-.02.29-.02.02.04.02.08.02.12v.09c0,.16-.05.25-.14.27-.23.05-.41.1-.55.17-.14.06-.27.16-.41.29l-2.49,2.42,2.92,3.69c.15.19.29.32.44.4.15.08.33.14.55.18.11.02.17.09.17.22,0,.02,0,.07,0,.13,0,.06-.01.11-.03.14-.12,0-.26-.02-.41-.02-.15,0-.31-.01-.46-.02-.16,0-.31,0-.45-.01-.14,0-.27,0-.37,0-.23,0-.51,0-.84.02-.33.01-.64.03-.93.04,0-.03-.01-.08-.02-.13,0-.05,0-.09,0-.12,0-.13.05-.2.15-.2.2-.02.33-.06.41-.1.08-.04.12-.09.12-.16,0-.05-.01-.1-.04-.14-.03-.04-.07-.1-.12-.17l-2.46-3.07Z"/>
        <path class="cls-14" d="M20.72,78.23c.07-.06.14-.09.2-.09.04,0,.09.02.14.06.05.04.11.11.17.22-.32.38-.69.65-1.1.83-.41.18-.9.26-1.47.26-.32,0-.63-.05-.94-.15-.31-.1-.58-.26-.83-.48-.25-.22-.44-.49-.6-.82-.15-.33-.23-.72-.23-1.18s.09-.86.26-1.22c.18-.36.4-.67.67-.93.27-.25.57-.45.88-.58.32-.14.63-.2.92-.2.79,0,1.39.23,1.8.69.41.46.61,1.09.61,1.88,0,.06-.03.09-.09.09l-3.53.15c0,.64.14,1.13.43,1.47.29.34.72.51,1.29.51.25,0,.5-.04.75-.12.25-.08.46-.2.65-.37ZM18.62,74.48c-.32,0-.58.14-.77.41-.19.27-.29.71-.29,1.3l1.92-.09c.12,0,.18-.06.18-.16,0-.16-.02-.32-.06-.49-.04-.17-.1-.33-.19-.47-.09-.14-.19-.26-.33-.36-.13-.09-.29-.14-.47-.14Z"/>
        <path class="cls-14" d="M24.94,77.57c.2-.48.36-.88.5-1.2.14-.32.24-.58.33-.79.08-.2.14-.37.18-.49.04-.12.06-.22.06-.3,0-.16-.13-.28-.39-.34-.06-.02-.1-.03-.12-.06-.02-.02-.04-.06-.04-.13,0-.02,0-.06.01-.09,0-.04.02-.08.02-.12.33.02.68.04,1.07.04.34,0,.66-.01.95-.04.02.04.03.09.03.14,0,.05,0,.08,0,.1,0,.09-.05.15-.16.17-.11.02-.21.05-.28.07-.07.02-.13.05-.18.1-.05.05-.09.1-.14.17-.04.07-.09.17-.15.29l-2.58,6.03c-.19.43-.45.74-.79.92-.34.18-.71.27-1.1.27-.07,0-.13-.02-.16-.06-.03-.04-.05-.09-.05-.14,0-.28.05-.52.15-.72.1-.2.21-.3.34-.3.07,0,.14,0,.2.02.06.02.14.02.25.02.21,0,.37-.04.49-.13s.21-.22.29-.41l.55-1.33-1.88-4.19c-.06-.12-.11-.22-.15-.29-.04-.07-.09-.12-.14-.17-.05-.04-.11-.07-.17-.09-.07-.02-.15-.04-.26-.07-.11-.02-.16-.09-.16-.21,0-.05.01-.12.04-.21.2.02.41.03.63.03.22,0,.49,0,.81,0,.29,0,.55,0,.76,0,.21,0,.43-.01.64-.03.02.09.04.16.04.21,0,.11-.05.17-.16.18-.2.02-.32.06-.37.1-.05.05-.08.1-.08.17,0,.04.02.13.06.26.04.13.13.35.27.66l.85,1.93Z"/>
        <path class="cls-14" d="M30.58,76.01v2.36c0,.19.08.32.24.4.16.08.43.14.82.19.11.02.17.1.17.25,0,.07,0,.14-.02.22-.24-.02-.53-.03-.89-.04-.36-.01-.74-.02-1.16-.02-.29,0-.58,0-.85.02-.27.01-.53.03-.77.04-.02-.03-.02-.07-.02-.11v-.1c0-.14.04-.22.14-.23.17-.03.31-.06.42-.09.11-.03.19-.06.25-.1.06-.04.1-.08.12-.14.02-.05.03-.12.03-.2v-6.16c0-.16-.06-.28-.18-.36-.12-.07-.35-.13-.68-.17-.04-.02-.07-.04-.1-.07-.02-.03-.04-.09-.04-.17v-.11s0-.07.02-.1c.23.02.49.03.79.04.3.01.57.02.8.02h1.86c.88,0,1.56.2,2.05.59s.74.94.74,1.65c0,.32-.06.62-.18.92-.12.29-.31.54-.55.76-.24.22-.53.39-.88.52-.34.13-.74.2-1.18.2h-.93ZM30.95,75.39c.5,0,.9-.13,1.21-.38.31-.25.46-.68.46-1.29,0-.55-.12-.97-.36-1.28-.24-.3-.68-.45-1.31-.45h-.37v3.4h.37Z"/>
        <path class="cls-14" d="M37.71,79.42c-.21-.02-.43-.03-.66-.04-.23-.01-.48-.02-.74-.02-.32,0-.59,0-.8.02-.22.01-.43.03-.63.04-.02-.08-.02-.16-.02-.23,0-.06.01-.1.04-.12.03-.02.06-.03.09-.04.26-.04.44-.09.54-.15.1-.06.15-.15.15-.28v-6.44c0-.25-.04-.43-.12-.56-.08-.13-.27-.2-.58-.23-.11-.02-.16-.08-.16-.2v-.09s0-.07.02-.1c.05,0,.12,0,.22,0,.09,0,.19,0,.3-.01.11,0,.21-.01.32-.02.11,0,.2-.02.29-.02.2-.02.4-.06.59-.1.19-.04.32-.06.38-.06.13,0,.2.06.2.18,0,.09-.01.21-.04.35-.02.14-.04.35-.04.61v3.18c.26-.34.55-.62.87-.83.32-.21.65-.31,1-.31.5,0,.89.14,1.18.42.29.28.43.7.43,1.25v3c0,.11.05.2.14.26.09.06.28.11.55.16.03,0,.06.02.09.04.03.02.04.06.04.12,0,.07,0,.15-.02.23-.21-.02-.43-.03-.64-.04-.21-.01-.48-.02-.8-.02-.26,0-.51,0-.74.02-.23.01-.45.03-.66.04-.02-.03-.02-.07-.02-.11v-.12c0-.09.04-.14.14-.16.22-.04.37-.09.44-.15.07-.06.1-.15.1-.27v-2.41c0-.48-.06-.82-.18-1-.12-.18-.31-.28-.57-.28-.37,0-.68.12-.95.37-.26.25-.39.62-.39,1.11v2.2c0,.12.03.21.1.27.07.06.21.11.44.15.09.02.14.07.14.16v.12s0,.08-.02.11Z"/>
        <path class="cls-14" d="M49.95,73.37c-.07.02-.15.04-.23.04-.11,0-.2-.02-.25-.07-.05-.04-.08-.09-.1-.14-.19-.47-.43-.8-.73-1.01-.3-.2-.7-.31-1.2-.31-.39,0-.73.1-1,.29-.27.19-.41.49-.41.88,0,.3.1.55.31.73.21.18.47.35.79.49.32.14.66.27,1.02.41.36.13.7.29,1.02.49.32.2.58.45.79.75.21.3.31.69.31,1.17,0,.31-.05.61-.16.91-.11.29-.27.56-.5.78-.23.23-.52.41-.87.54-.35.14-.77.2-1.27.2-.54,0-1.02-.06-1.45-.18-.43-.12-.78-.25-1.06-.39-.02-.35-.06-.7-.12-1.04-.05-.34-.11-.67-.18-.99.08-.03.18-.05.28-.05.1,0,.17.02.22.06s.09.1.12.19c.11.31.23.58.36.8.13.23.28.41.45.55.17.14.37.25.6.31.23.07.49.1.78.1.25,0,.47-.03.65-.1.18-.07.33-.16.44-.28s.2-.25.26-.41c.06-.16.09-.32.09-.48,0-.35-.1-.63-.3-.83-.2-.2-.45-.37-.75-.5-.3-.14-.62-.26-.97-.38-.35-.12-.67-.27-.97-.45-.3-.18-.55-.42-.75-.71-.2-.29-.3-.68-.3-1.17,0-.33.06-.63.18-.92.12-.28.29-.53.52-.74.23-.21.51-.37.83-.5.32-.12.69-.18,1.11-.18.34,0,.69.04,1.04.11.35.07.74.2,1.19.37.02.25.04.52.08.83.04.31.08.58.13.83Z"/>
        <path class="cls-14" d="M51.19,76.73c0-.4.07-.77.22-1.11.14-.34.34-.63.6-.88.25-.25.56-.44.91-.58.35-.14.74-.21,1.16-.21s.83.07,1.18.21c.35.14.66.33.91.58.25.25.45.54.58.88.14.34.2.71.2,1.11s-.07.77-.22,1.11c-.14.34-.34.63-.6.88s-.56.44-.92.58c-.35.14-.74.21-1.16.21s-.83-.07-1.18-.21c-.35-.14-.65-.33-.9-.58-.25-.25-.44-.54-.58-.88-.14-.34-.2-.71-.2-1.11ZM52.74,76.49c0,.75.12,1.36.37,1.81.25.45.61.68,1.08.68.43,0,.74-.17.93-.52.18-.35.28-.84.28-1.47,0-.75-.13-1.35-.38-1.81-.25-.46-.61-.69-1.07-.69-.43,0-.74.18-.93.53-.18.36-.28.85-.28,1.47Z"/>
        <path class="cls-14" d="M60.77,79.42c-.21-.02-.46-.03-.73-.04-.27-.01-.53-.02-.77-.02-.26,0-.52,0-.78.02-.26.01-.49.03-.71.04,0-.03-.01-.07-.02-.1,0-.04,0-.08,0-.13,0-.06.01-.1.04-.12.03-.02.06-.03.09-.04.26-.05.44-.1.54-.16.1-.06.15-.15.15-.27v-6.44c0-.25-.05-.43-.14-.56-.09-.13-.28-.2-.57-.23-.11-.02-.16-.09-.16-.2v-.1s0-.07.02-.1c.05,0,.12,0,.22,0,.09,0,.19,0,.3-.01.11,0,.21-.01.32-.02.11,0,.2-.02.29-.02.2-.02.4-.06.59-.1.19-.04.32-.06.38-.06.13,0,.2.06.2.18,0,.09-.01.21-.04.35-.02.14-.04.35-.04.61v6.7c0,.12.05.21.15.27.1.06.28.11.54.16.09.02.14.07.14.16,0,.11,0,.19-.02.23Z"/>
        <path class="cls-14" d="M66.8,78.98c.12,0,.18.1.18.31-.11.07-.24.13-.4.17s-.32.06-.49.06c-.37,0-.65-.09-.85-.27-.2-.18-.31-.39-.34-.63-.16.33-.38.56-.66.69-.27.14-.6.2-.96.2-.17,0-.36-.01-.57-.04-.21-.03-.4-.09-.58-.18-.18-.09-.33-.22-.45-.38-.12-.16-.18-.38-.18-.65,0-.3.08-.56.23-.77.16-.21.35-.39.58-.53.23-.14.49-.26.77-.34.28-.09.54-.16.79-.22.11-.02.22-.05.33-.08.11-.03.2-.05.27-.07.09-.02.15-.06.17-.1.02-.04.04-.16.04-.35,0-.42-.06-.74-.18-.96-.12-.23-.33-.34-.63-.34-.24,0-.41.07-.51.22-.1.15-.2.38-.29.7-.02.09-.1.16-.22.2-.12.05-.27.09-.45.14-.1.02-.2.05-.3.06-.1.02-.19.02-.28.02-.05,0-.08-.02-.1-.06-.02-.04-.02-.11-.02-.22,0-.2.08-.41.23-.6.15-.2.34-.37.57-.52.23-.15.48-.27.76-.36.27-.09.54-.14.79-.14.3,0,.58.03.82.08.25.05.46.15.63.28.18.14.31.32.41.54.1.23.15.51.15.87v2.16c0,.29,0,.5.02.63.01.13.03.23.07.29.07.15.19.22.34.22.07,0,.12,0,.17-.02.04-.01.09-.02.13-.02ZM64.69,76.68l-.27.05c-.19.03-.36.08-.53.14-.16.06-.31.14-.42.25-.12.1-.21.23-.28.38-.07.15-.1.33-.1.55,0,.32.05.54.15.67.1.13.25.19.45.19.31,0,.56-.11.74-.34.18-.23.27-.55.27-.96v-.92Z"/>
        <path class="cls-14" d="M71.35,73.96c.24,0,.42.06.53.18.12.12.18.28.18.47,0,.06-.01.11-.03.15-.02.04-.07.09-.14.14-.07.05-.17.1-.29.17-.12.06-.28.14-.48.23-.13-.13-.25-.22-.36-.26-.11-.04-.22-.07-.33-.07-.1,0-.19.02-.29.05-.09.03-.18.1-.25.19-.07.09-.13.22-.18.37-.05.16-.07.36-.07.6v2.29c0,.16.07.28.2.36.13.08.39.15.77.22.09.02.14.07.14.16,0,.11,0,.19-.02.23-.11,0-.24-.01-.39-.02-.16,0-.32-.01-.49-.02-.17,0-.34-.01-.51-.02-.17,0-.32,0-.45,0-.31,0-.58,0-.8.02-.22.01-.43.03-.63.04-.02-.04-.02-.12-.02-.23,0-.09.04-.14.14-.16.26-.05.44-.1.54-.16.1-.06.15-.15.15-.27v-3.31c0-.19-.03-.34-.1-.45-.07-.11-.26-.19-.58-.23-.11-.02-.17-.08-.17-.18v-.1s0-.07.02-.1c.05,0,.12,0,.21,0,.09,0,.19,0,.29-.01.11,0,.21-.01.32-.02.11,0,.2-.02.28-.04.18-.02.37-.06.56-.09.19-.04.32-.06.39-.06.11,0,.17.06.17.18v.66c.29-.31.56-.54.82-.68.26-.14.55-.22.87-.22Z"/>
        <path class="cls-14" d="M11.24,85.35s-.07.02-.11.02c-.05,0-.09-.01-.12-.03s-.04-.04-.05-.07c-.09-.22-.21-.38-.35-.48-.14-.1-.33-.15-.57-.15-.19,0-.35.05-.48.14-.13.09-.2.23-.2.42,0,.14.05.26.15.35s.22.16.37.23c.15.07.31.13.48.19.17.06.33.14.48.23.15.09.27.21.37.36.1.14.15.33.15.55,0,.15-.03.29-.08.43-.05.14-.13.26-.24.37-.11.11-.25.19-.41.26-.17.06-.37.1-.6.1-.26,0-.49-.03-.69-.08-.2-.06-.37-.12-.5-.18-.01-.17-.03-.33-.06-.49-.03-.16-.05-.32-.08-.47.04-.02.08-.02.13-.02.05,0,.08,0,.11.03s.04.05.06.09c.05.15.11.28.17.38.06.11.13.19.22.26.08.07.18.12.28.15.11.03.23.05.37.05.12,0,.22-.02.31-.05.09-.03.16-.08.21-.13.05-.05.1-.12.12-.19.03-.07.04-.15.04-.23,0-.17-.05-.3-.14-.39-.1-.1-.21-.18-.36-.24-.14-.06-.3-.12-.46-.18-.17-.06-.32-.13-.46-.22-.14-.09-.26-.2-.36-.34-.1-.14-.14-.32-.14-.56,0-.16.03-.3.08-.44.06-.13.14-.25.25-.35.11-.1.24-.18.39-.24.15-.06.33-.09.53-.09.16,0,.33.02.49.05.17.04.35.09.56.18,0,.12.02.25.04.39.02.15.04.28.06.39Z"/>
        <path class="cls-14" d="M15.56,86.31c0-.27.05-.53.15-.77.1-.24.24-.45.42-.62s.39-.32.63-.42c.24-.1.5-.15.77-.15s.54.05.78.15c.24.1.45.23.63.41.18.18.32.38.42.62.1.24.15.5.15.79s-.05.53-.15.77c-.1.24-.24.45-.42.62-.18.18-.39.32-.63.42-.24.1-.5.15-.77.15s-.54-.05-.78-.15c-.24-.1-.45-.23-.62-.41-.18-.18-.31-.38-.41-.62-.1-.24-.15-.5-.15-.79ZM17.62,87.97c.16,0,.31-.04.44-.11.13-.07.25-.17.34-.29.1-.12.17-.27.22-.44.05-.17.08-.35.08-.54,0-.28-.03-.53-.08-.77-.05-.24-.13-.44-.24-.62-.11-.17-.24-.31-.4-.41-.16-.1-.35-.15-.56-.15-.14,0-.27.03-.4.09-.13.06-.24.15-.34.26-.1.11-.18.25-.23.42-.06.16-.09.35-.09.55,0,.29.03.55.08.8.06.25.14.46.25.63.11.18.24.32.39.41.16.1.33.15.53.15Z"/>
        <path class="cls-14" d="M24.91,87.71c0,.08.05.14.16.16.11.03.28.04.52.04h.22c.1,0,.18-.01.25-.03.07-.02.14-.06.19-.11.05-.05.1-.12.15-.2.04-.08.09-.18.13-.29.01-.03.04-.05.09-.05.02,0,.04,0,.07.02.03.01.05.02.08.04-.03.12-.06.26-.08.41-.03.15-.05.29-.07.43,0,.05-.02.08-.04.09-.02.01-.04.02-.07.02-.03,0-.08,0-.13,0-.06,0-.12,0-.18,0-.07,0-.13,0-.2,0-.07,0-.13,0-.18,0h-1.33c-.11,0-.24,0-.39,0-.15,0-.28.01-.39.02,0-.02-.01-.04-.01-.06v-.06c0-.06.02-.09.06-.09.15-.03.25-.06.32-.09.06-.03.1-.09.1-.16v-2.93s0-.07-.01-.1c0-.03-.02-.05-.05-.07-.02-.02-.06-.04-.11-.05-.05-.01-.11-.03-.2-.04-.04-.01-.06-.04-.06-.1v-.05s0-.04.01-.06c.12,0,.26.01.4.02.14,0,.26,0,.37,0,.05,0,.12,0,.19,0,.07,0,.14,0,.22,0,.08,0,.15,0,.23,0,.08,0,.15,0,.21-.01,0,.02,0,.04,0,.06,0,.02,0,.04,0,.05,0,.05-.02.09-.06.1-.17.02-.28.05-.34.09-.06.04-.08.09-.08.17v2.85Z"/>
        <path class="cls-14" d="M34.01,86.76c0,.22-.02.43-.07.61-.05.18-.13.34-.24.48-.11.13-.27.24-.46.31-.19.07-.44.11-.73.11-.35,0-.63-.04-.84-.12-.21-.08-.38-.18-.49-.32-.11-.13-.19-.29-.23-.47-.04-.18-.06-.37-.06-.58v-1.94c0-.08-.03-.14-.08-.17-.05-.03-.15-.06-.31-.08-.04,0-.06-.04-.06-.11v-.05s0-.04.01-.06c.11,0,.23.01.36.02.13,0,.28,0,.45,0,.14,0,.28,0,.43,0,.15,0,.28-.01.4-.02,0,.02,0,.04,0,.06,0,.02,0,.03,0,.05,0,.07-.02.1-.06.11-.16.02-.27.05-.32.08-.06.04-.08.09-.08.17v1.81c0,.4.07.71.22.92.15.21.41.32.77.32s.64-.1.8-.29c.16-.2.24-.52.24-.96v-1.79c0-.08-.03-.13-.08-.17-.05-.03-.16-.06-.31-.08-.05-.01-.07-.05-.07-.11,0-.01,0-.03,0-.05,0-.02,0-.04,0-.06.11.01.22.02.31.02.1,0,.2,0,.31,0,.12,0,.24,0,.33,0,.1,0,.19-.01.29-.02,0,.02,0,.04,0,.06,0,.02,0,.03,0,.05,0,.06-.02.1-.07.11-.14.02-.24.04-.3.08-.05.04-.08.09-.08.17v1.92Z"/>
        <path class="cls-14" d="M40.7,84.7v3.07s0,.07,0,.1c0,.03.02.05.04.07s.06.04.1.05c.04.01.1.03.18.04.06.01.09.04.09.1,0,.01,0,.03,0,.05,0,.02,0,.04,0,.06-.12,0-.26-.01-.4-.02s-.27,0-.38,0-.24,0-.38,0c-.14,0-.27.01-.39.02,0-.02-.01-.04-.01-.06,0-.02,0-.04,0-.05,0-.03,0-.05.01-.07,0-.02.04-.03.08-.04.14-.02.23-.05.27-.08.04-.03.06-.09.06-.17v-3.07h-.51c-.11,0-.2.01-.28.03-.08.02-.14.05-.2.1-.06.04-.11.1-.15.18-.04.07-.09.16-.14.26-.02.03-.04.05-.09.05-.02,0-.05,0-.08-.01-.03,0-.05-.02-.07-.03.03-.09.05-.18.07-.25.02-.07.04-.14.05-.21.02-.09.03-.17.04-.24,0-.07.02-.12.03-.15.02-.04.05-.05.09-.05.04,0,.13,0,.25.02.13.01.28.02.46.02h1.8c.18,0,.33,0,.45-.02.13-.01.21-.02.26-.02.04,0,.07.02.09.05.01.03.02.08.03.15,0,.07.02.15.04.24.01.07.03.14.04.21.02.07.04.15.07.25-.02,0-.04.02-.07.03-.03,0-.06.01-.08.01-.04,0-.07-.02-.09-.05-.05-.1-.09-.19-.14-.26-.04-.07-.1-.13-.15-.18-.06-.04-.12-.08-.2-.1-.08-.02-.17-.03-.27-.03h-.51Z"/>
        <path class="cls-14" d="M47.4,87.77s0,.07,0,.1c0,.03.02.05.05.07.03.02.06.04.11.05.05.01.11.03.2.04.04,0,.06.04.06.1,0,.01,0,.03,0,.05,0,.02,0,.04,0,.06-.12,0-.26-.01-.4-.02-.14,0-.27,0-.38,0s-.24,0-.38,0c-.14,0-.27.01-.4.02,0-.02-.01-.04-.01-.06v-.05c0-.06.02-.1.06-.1.08-.01.15-.02.2-.04.05-.01.08-.03.11-.05s.04-.04.05-.07c0-.03.01-.06.01-.1v-2.93s0-.07-.01-.1c0-.03-.02-.05-.05-.07-.02-.02-.06-.04-.11-.05-.05-.01-.11-.03-.2-.04-.04-.01-.06-.04-.06-.1v-.05s0-.04.01-.06c.12,0,.26.01.4.02.14,0,.27,0,.38,0s.23,0,.38,0c.14,0,.28-.01.4-.02,0,.02,0,.04,0,.06s0,.04,0,.05c0,.05-.02.09-.06.1-.08.01-.15.02-.2.04-.05.01-.09.03-.11.05-.03.02-.04.04-.05.07,0,.03,0,.06,0,.1v2.93Z"/>
        <path class="cls-14" d="M51.99,86.31c0-.27.05-.53.15-.77.1-.24.24-.45.42-.62.18-.18.39-.32.63-.42.24-.1.5-.15.77-.15s.54.05.78.15c.24.1.45.23.63.41.18.18.32.38.42.62.1.24.15.5.15.79s-.05.53-.15.77c-.1.24-.24.45-.42.62-.18.18-.39.32-.63.42-.24.1-.5.15-.77.15s-.54-.05-.78-.15-.45-.23-.62-.41-.31-.38-.41-.62c-.1-.24-.15-.5-.15-.79ZM54.05,87.97c.16,0,.31-.04.44-.11.13-.07.25-.17.34-.29.1-.12.17-.27.22-.44.05-.17.08-.35.08-.54,0-.28-.03-.53-.08-.77-.05-.24-.13-.44-.24-.62-.11-.17-.24-.31-.4-.41s-.35-.15-.56-.15c-.14,0-.27.03-.4.09-.13.06-.24.15-.34.26-.1.11-.18.25-.23.42-.06.16-.09.35-.09.55,0,.29.03.55.08.8s.14.46.25.63c.11.18.24.32.39.41.16.1.33.15.53.15Z"/>
        <path class="cls-14" d="M63.13,86.93v-2.07c0-.09-.03-.15-.09-.18-.06-.03-.16-.06-.31-.08-.05-.01-.08-.05-.08-.11v-.05s0-.04.01-.06c.1.01.19.02.29.02.09,0,.2,0,.33,0s.23,0,.32,0c.09,0,.18-.01.27-.02,0,.02,0,.04,0,.06,0,.02,0,.03,0,.05,0,.07-.02.1-.07.11-.13.02-.22.05-.26.08-.05.04-.07.09-.07.17v3.42s-.04,0-.08,0c-.04,0-.06,0-.07,0-.03,0-.06,0-.09-.02-.03-.01-.06-.04-.1-.08l-2.3-2.92v2.52s0,.07,0,.1c0,.03.02.05.05.06.03.02.06.03.11.05.05.01.11.03.2.04.02,0,.04.01.05.03.01.01.02.04.02.08,0,.03,0,.06-.01.1-.1,0-.19-.01-.27-.02-.09,0-.18,0-.3,0s-.22,0-.32,0c-.1,0-.2.01-.28.02,0-.02-.01-.03-.01-.05v-.05s0-.07.02-.08c.01-.02.03-.03.05-.03.14-.02.23-.05.28-.09.05-.04.07-.09.07-.16v-2.96c0-.06-.02-.11-.06-.14-.04-.03-.13-.06-.28-.08-.05-.01-.07-.05-.07-.11v-.03s0-.02,0-.03v-.05c.06,0,.11,0,.16,0,.05,0,.1,0,.15,0,.09,0,.17,0,.26,0,.09,0,.16,0,.21,0,.11,0,.19,0,.22.01.03,0,.07.03.09.06l1.94,2.45Z"/>
        <path class="cls-14" d="M70.48,85.35s-.07.02-.11.02c-.05,0-.09-.01-.12-.03-.02-.02-.04-.04-.05-.07-.09-.22-.21-.38-.35-.48-.14-.1-.33-.15-.57-.15-.19,0-.35.05-.48.14-.13.09-.2.23-.2.42,0,.14.05.26.15.35s.22.16.37.23.31.13.48.19c.17.06.33.14.48.23.15.09.27.21.37.36.1.14.15.33.15.55,0,.15-.03.29-.08.43-.05.14-.13.26-.24.37-.11.11-.25.19-.41.26-.17.06-.37.1-.6.1-.26,0-.49-.03-.69-.08-.2-.06-.37-.12-.5-.18-.01-.17-.03-.33-.06-.49-.03-.16-.05-.32-.08-.47.04-.02.08-.02.13-.02.05,0,.08,0,.11.03.02.02.04.05.06.09.05.15.11.28.17.38.06.11.13.19.22.26.08.07.18.12.28.15.11.03.23.05.37.05.12,0,.22-.02.31-.05.09-.03.16-.08.21-.13s.1-.12.12-.19c.03-.07.04-.15.04-.23,0-.17-.05-.3-.14-.39-.1-.1-.21-.18-.36-.24-.14-.06-.3-.12-.46-.18-.17-.06-.32-.13-.46-.22-.14-.09-.26-.2-.36-.34-.1-.14-.14-.32-.14-.56,0-.16.03-.3.08-.44.06-.13.14-.25.25-.35.11-.1.24-.18.39-.24.15-.06.33-.09.53-.09.16,0,.33.02.49.05.17.04.35.09.56.18,0,.12.02.25.04.39.02.15.04.28.06.39Z"/>
      </g>
    </g>
  </g>
</svg>