<svg width="129" height="126" viewBox="0 0 129 126" fill="none" xmlns="http://www.w3.org/2000/svg">
<path d="M81.8712 40.8018C81.8648 40.4757 81.8552 40.1496 81.8456 39.8266C81.7977 38.1224 80.6594 39.2831 80.0423 39.897C79.0959 40.837 78.1495 41.777 77.1998 42.717C75.2686 44.6355 73.3374 46.5539 71.4062 48.4755C71.3806 48.5011 71.355 48.5299 71.3263 48.5555C71.2271 48.6642 71.1408 48.7921 71.1536 48.9359C71.176 49.2013 71.4893 49.3164 71.7483 49.3772C74.9809 50.1222 78.0919 51.4043 80.912 53.1501C81.139 53.2908 81.4619 53.4251 81.6474 53.23C81.7273 53.1469 81.7465 53.0318 81.7561 52.9135C81.7561 52.8879 81.7561 52.8655 81.7593 52.8399C81.9288 48.8272 81.9639 44.8113 81.8712 40.7986V40.8018Z" fill="#DD5626"/>
<path d="M34.179 85.0399C34.179 84.9471 34.1694 84.8512 34.1502 84.7649C33.5203 81.5323 33.4596 78.1911 33.9744 74.9393C34.1854 73.6092 33.4628 73.7915 32.5931 74.1912C31.3429 74.7667 30.0608 75.2847 28.7978 75.8314C26.2687 76.9249 23.7396 78.0184 21.2072 79.1087C20.9547 79.2174 20.6509 79.4221 20.7212 79.6874C20.766 79.8569 20.9483 79.9496 21.1113 80.0168C25.2647 81.7913 29.4149 83.5691 33.5683 85.3436C33.7058 85.4012 33.8625 85.4587 33.9967 85.398C34.131 85.334 34.1758 85.1933 34.179 85.0399Z" fill="#DD5626"/>
<path d="M38.3646 62.3301C38.3198 62.3301 38.2782 62.3301 38.2335 62.3269C35.8514 62.2725 33.463 62.2661 31.0809 62.3109C29.8276 62.3333 28.5774 62.3685 27.3272 62.4164C26.2625 62.458 25.0539 62.378 23.986 62.5571C23.8101 62.5859 23.711 62.7873 23.8069 62.9408C24.2801 63.7145 25.3896 64.5395 25.9619 65.1374C26.8156 66.0294 27.6757 66.9183 28.5358 67.804C30.2176 69.5402 31.9027 71.2763 33.6165 72.9805C33.6228 72.9869 33.6324 72.9965 33.6388 73.0029C33.7635 73.1308 33.9042 73.2651 34.144 73.1756C34.3455 73.102 34.4861 72.9198 34.5373 72.712C35.4422 69.0989 36.8106 65.601 38.598 62.3333C38.5212 62.3333 38.4477 62.3301 38.371 62.3269L38.3646 62.3301ZM34.6716 62.5987C34.6716 62.5987 34.6492 62.5955 34.6332 62.5923C34.598 62.5251 34.7259 62.5859 34.6716 62.5987ZM33.965 62.6786C33.965 62.6786 33.9394 62.6946 33.9266 62.701C33.9234 62.701 33.9202 62.6978 33.917 62.6946C33.933 62.6882 33.949 62.685 33.965 62.6786Z" fill="#DD5626"/>
<path d="M46.8306 53.575C46.8306 53.575 46.8242 53.5654 46.8242 53.5622C46.7922 53.5015 46.7315 53.4631 46.6675 53.4311C46.6484 53.4183 46.626 53.4119 46.6036 53.4023C44.0169 52.3184 41.427 51.2473 38.8276 50.1858C37.555 49.6678 36.2793 49.1498 35.0003 48.635C34.623 48.4848 33.9004 47.9924 33.5359 48.3601C33.1682 48.731 33.5583 49.6071 33.715 49.9843C35.3616 53.8979 37.0115 57.8115 38.6581 61.7283C38.6645 61.7411 38.6677 61.7507 38.6741 61.7635C38.7125 61.853 38.754 61.9489 38.8372 62.0001C39.0258 62.1184 39.2592 61.9329 39.3999 61.7603C40.2216 60.7563 40.8867 59.6276 41.7276 58.6396C43.208 56.9067 45.1872 55.6597 46.6931 53.9523C46.7858 53.8468 46.885 53.7061 46.8306 53.575ZM38.2424 59.1672C38.2424 59.1672 38.2425 59.164 38.2393 59.1608H38.2424V59.1672ZM45.2447 53.9619C45.2447 53.9619 45.2447 53.9683 45.2479 53.9715C45.2447 53.9715 45.2415 53.9715 45.2383 53.9683L45.2447 53.9619Z" fill="#DD5626"/>
<path d="M57.571 48.2297C54.7637 45.2946 51.8605 42.4521 48.8646 39.7087C48.1708 39.0725 47.4897 38.7239 47.4865 39.9677C47.4769 44.3066 47.4705 48.6454 47.4609 52.9842C47.4609 53.0802 47.4673 53.1921 47.5377 53.256C47.6496 53.3551 47.8254 53.2784 47.9501 53.1985C51.1091 51.2065 54.6103 49.7613 58.2553 48.9492C58.0283 48.7094 57.8013 48.4695 57.571 48.2297Z" fill="#DD5626"/>
<path d="M108.568 79.5034C108.299 79.2924 107.976 79.1517 107.66 79.0142C103.804 77.3548 99.9446 75.6985 96.0886 74.0391C95.8999 73.9592 95.4299 73.681 95.2349 73.8345C95.0079 74.0135 95.1933 74.7138 95.2349 74.944C95.7976 78.2628 95.7433 81.6872 95.0718 84.9869C95.0462 85.118 95.0718 85.2619 95.1677 85.3578C95.302 85.4953 95.4459 85.4378 95.5738 85.3834L108.526 79.8072C108.651 79.7528 108.673 79.5834 108.568 79.5002V79.5034Z" fill="#DD5626"/>
<path d="M95.8843 48.3838C95.8843 48.3838 95.8715 48.371 95.8651 48.3646C95.7788 48.2751 95.6349 48.3039 95.5166 48.3359C91.1043 49.5988 86.7942 51.3414 82.676 53.3653C82.6312 53.3877 82.5832 53.4101 82.5385 53.4389C82.4649 53.4836 82.3978 53.538 82.3594 53.6147C82.2155 53.8897 82.4969 54.1903 82.7431 54.3789C85.4001 56.3933 87.779 58.7721 89.7997 61.4259C89.9532 61.6306 90.1962 61.8608 90.4264 61.7489C90.5127 61.7073 90.5703 61.6274 90.6151 61.541C90.631 61.5091 90.6438 61.4803 90.6566 61.4515C92.4855 57.5219 94.1609 53.522 95.6829 49.4613C95.7852 49.1864 95.8875 48.9082 95.9195 48.6172C95.9291 48.5341 95.9291 48.4446 95.8811 48.3774L95.8843 48.3838Z" fill="#DD5626"/>
<path d="M105.198 62.7429L105.103 62.7365C102.612 62.615 100.118 62.4935 97.6271 62.3752C96.3641 62.3144 95.1044 62.2537 93.8414 62.1897C93.1987 62.1577 92.5529 62.129 91.907 62.097C91.5361 62.0778 91.21 62.0618 91.0661 62.2473C90.983 62.356 90.9606 62.5318 91.0277 62.8164C91.0917 63.0754 91.2292 63.3088 91.3666 63.539C93.0453 66.3719 94.2379 69.4957 94.8678 72.7315C94.9125 72.9617 95.0372 73.259 95.2706 73.2239C95.3666 73.2111 95.4433 73.1343 95.5136 73.064L95.5552 73.0224C98.8293 69.7387 102.107 66.4582 105.384 63.1745C105.621 62.9379 105.502 62.7556 105.195 62.7397L105.198 62.7429ZM97.8637 70.6244C97.8381 70.6468 97.8094 70.6692 97.7774 70.6915C97.8062 70.6692 97.8349 70.6468 97.8637 70.6244Z" fill="#DD5626"/>
<path d="M70.2096 48.3275C70.2 48.2955 70.1873 48.2667 70.1745 48.2379C69.3208 46.0349 68.4351 43.8415 67.5142 41.6609C67.0634 40.5962 66.6094 39.5347 66.1458 38.4764C65.9188 37.9584 65.2793 35.7074 64.6174 35.7426C63.978 35.7746 63.3992 37.9168 63.1754 38.4284C62.6862 39.5507 62.1938 40.6761 61.7078 41.7984C60.7742 43.9503 59.8501 46.1053 58.9325 48.2635C58.9293 48.2699 58.9261 48.2763 58.9229 48.2827C58.8366 48.4937 58.7822 48.7719 58.9709 48.8902C59.0732 48.9542 59.2075 48.9318 59.3226 48.9094C62.6478 48.2603 66.0882 48.2283 69.4263 48.8199C69.73 48.8742 70.1489 48.8518 70.2256 48.5737C70.2288 48.5609 70.232 48.5449 70.2352 48.5321C70.2448 48.4618 70.232 48.3946 70.2096 48.3275ZM69.8899 48.7367C69.8899 48.7367 69.8835 48.7207 69.8771 48.7143C69.8867 48.7143 69.8931 48.7144 69.9027 48.7112C69.8995 48.7207 69.8931 48.7271 69.8899 48.7399V48.7367Z" fill="#DD5626"/>
<path d="M75.6527 83.0714C75.5663 83.0395 75.4768 83.0107 75.3905 82.9851C73.7758 82.5055 72.1611 82.0259 70.5432 81.5431C69.1044 81.1146 67.6592 80.6862 66.1692 80.4847C64.043 80.197 62.3004 80.6734 60.2861 81.2553C58.1694 81.866 56.0368 82.416 53.8881 82.9084C53.5012 82.9947 53.0632 83.1258 52.9097 83.4903C52.785 83.794 52.9257 84.1553 53.1623 84.3824C53.3989 84.6094 53.7155 84.7309 54.0224 84.8492C56.2798 85.7061 58.5371 86.5662 60.7912 87.4231C61.9135 87.8515 63.0646 88.2832 64.2636 88.3279C65.7152 88.3823 67.1189 87.8675 68.4777 87.3623C70.7735 86.5086 73.066 85.6549 75.3617 84.8044C75.8541 84.6222 76.4456 84.2864 76.3753 83.7653C76.3273 83.4103 75.9948 83.2057 75.6463 83.0714H75.6527Z" fill="url(#paint0_linear_687_62)"/>
<path d="M109.401 91.6545C109.385 91.5234 109.347 91.3987 109.277 91.2868C109.19 91.1621 109.069 91.0694 108.934 90.9926C108.88 90.9607 108.823 90.9319 108.765 90.9063C106.383 89.752 103.477 89.4899 101.063 90.5994C98.2457 91.8911 95.4352 93.1956 92.6279 94.5065C92.2058 94.7016 91.787 94.8998 91.3649 95.0949C90.815 95.3507 90.2586 95.6128 89.7694 95.9741C89.4593 96.2044 89.1459 96.5529 89.2227 96.9334C89.3026 97.3266 89.7374 97.5185 90.1147 97.6528C95.8252 99.6607 101.533 101.669 107.24 103.677C107.336 103.709 107.432 103.744 107.531 103.773C107.94 103.894 108.372 103.961 108.73 103.753C109.209 103.472 109.312 102.833 109.347 102.279C109.401 101.394 109.404 100.505 109.404 99.616C109.411 97.0804 109.414 94.5481 109.417 92.0126C109.417 91.8943 109.417 91.7728 109.401 91.6545ZM109.05 98.0524C109.05 98.0524 109.034 98.0428 109.024 98.0365C109.034 98.0365 109.04 98.0301 109.05 98.0269V98.0492V98.0524Z" fill="url(#paint1_linear_687_62)"/>
<path d="M60.2109 89.2998C60.1181 88.9832 59.8176 88.7978 59.5042 88.6635C59.4243 88.6315 59.3444 88.5996 59.2676 88.5708C56.649 87.6308 54.0303 86.6907 51.4117 85.7507C50.2127 85.3191 49.004 84.8874 47.7443 84.7084C45.3175 84.3662 42.6828 85.4022 40.3456 85.9841C37.4327 86.7099 34.5167 87.4389 31.6039 88.1647C31.0892 88.2926 30.4753 88.5228 30.3953 89.044C30.3058 89.6227 30.9325 90.032 31.4632 90.2782C34.9644 91.8929 38.4687 93.5107 41.9698 95.1254C42.5869 95.4068 43.2232 95.6977 43.901 95.7233C44.5533 95.7489 45.1864 95.5283 45.8035 95.3109C50.2063 93.7505 54.6091 92.1902 59.0118 90.6267C59.6385 90.4061 60.4027 89.9329 60.2173 89.2966L60.2109 89.2998ZM41.8611 85.9266C41.8611 85.9266 41.8547 85.9106 41.8483 85.9042C41.8643 85.901 41.8803 85.8978 41.8963 85.8946C41.8835 85.9074 41.8739 85.917 41.8579 85.9266H41.8611ZM44.1568 95.6913C44.1664 95.6722 44.1792 95.653 44.1888 95.6338C44.1984 95.653 44.208 95.669 44.224 95.6881C44.2016 95.6881 44.1792 95.6881 44.1568 95.6881V95.6913Z" fill="url(#paint2_linear_687_62)"/>
<path d="M39.9503 96.5535C39.8991 96.4224 39.816 96.3009 39.7169 96.1986C39.5058 95.9843 39.2309 95.8469 38.9591 95.7158C36.5355 94.5263 34.1119 93.3401 31.6882 92.1507C29.9201 91.2842 28.12 90.4081 26.1824 89.9861C24.1936 89.5544 22.3903 90.0244 20.5038 90.7215C20.4654 90.7343 20.4303 90.7502 20.3919 90.763C20.1553 90.8558 19.9251 90.9709 19.7844 91.1755C19.6309 91.4025 19.6149 91.6935 19.6054 91.9684C19.4934 95.4632 19.5414 98.9579 19.7556 102.446C19.7908 103.022 19.9059 103.709 20.4335 103.939C20.7372 104.074 21.0889 104.003 21.4119 103.923C21.5238 103.895 21.6325 103.866 21.7412 103.837C22.8059 103.556 23.8451 103.188 24.8842 102.817C29.5876 101.145 34.2909 99.4727 38.9974 97.8037C39.4131 97.6566 39.8863 97.4487 39.9918 97.0203C40.0302 96.8636 40.0078 96.7006 39.9471 96.5535H39.9503ZM19.8484 97.7429C19.8484 97.7429 19.8484 97.7301 19.8452 97.7237C19.8579 97.7237 19.8675 97.7205 19.8771 97.7173C19.8675 97.7237 19.8579 97.7333 19.8484 97.7397V97.7429ZM20.1329 96.2817C20.1329 96.2817 20.1329 96.2657 20.1329 96.2593C20.1393 96.2657 20.1457 96.2689 20.1521 96.2721C20.1457 96.2753 20.1393 96.2817 20.1361 96.2849L20.1329 96.2817ZM28.1775 101.327C28.1775 101.327 28.1264 101.35 28.1136 101.34C28.1136 101.34 28.1072 101.337 28.104 101.334C28.1296 101.311 28.1551 101.292 28.1807 101.27C28.1807 101.286 28.1775 101.305 28.1775 101.324V101.327Z" fill="url(#paint3_linear_687_62)"/>
<path d="M60.992 106.126C60.9664 106.03 60.9248 105.934 60.8673 105.854C60.6595 105.564 60.3205 105.397 59.9976 105.244C57.072 103.863 54.0025 102.414 51.0194 101.01C48.3688 99.7635 45.1906 97.6053 42.1211 98.216C40.0748 98.622 38.0188 99.658 36.0589 100.384C31.9406 101.906 27.8256 103.428 23.7074 104.95C23.701 104.953 23.6946 104.956 23.6914 104.956C23.7713 105.723 24.4076 106.334 25.127 106.612C25.7058 106.836 26.3292 106.884 26.9527 106.894C27.103 106.894 27.2533 106.897 27.4036 106.897C38.3226 106.916 49.2384 106.938 60.1575 106.961C60.3813 106.961 60.6243 106.958 60.8065 106.82C61.0144 106.667 61.0623 106.379 60.9952 106.123L60.992 106.126ZM27.1062 106.638H27.1286C27.1286 106.638 27.1158 106.647 27.1062 106.638ZM32.1868 106.564C32.1517 106.558 32.1197 106.555 32.0877 106.542C32.1261 106.555 32.1613 106.555 32.1996 106.552C32.1932 106.555 32.19 106.561 32.1868 106.564ZM37.5328 106.785C37.5456 106.747 37.5552 106.718 37.5584 106.692C37.5936 106.715 37.6256 106.743 37.6575 106.785H37.5328ZM37.9549 106.788C38.0828 106.753 38.1499 106.667 38.3929 106.587C38.265 106.686 38.1244 106.763 37.9549 106.788ZM39.6399 99.6804C39.6399 99.6804 39.6399 99.6708 39.6399 99.6676C39.6463 99.6676 39.6527 99.6676 39.6559 99.6676C39.6495 99.6708 39.6463 99.674 39.6399 99.6804ZM44.8772 106.795C44.8644 106.75 44.8548 106.711 44.842 106.683C44.8836 106.702 44.922 106.737 44.9572 106.785C44.9284 106.788 44.9028 106.791 44.8772 106.795ZM47.7613 106.638H47.7325C47.7325 106.638 47.7645 106.622 47.7804 106.615C47.774 106.622 47.7676 106.631 47.7613 106.638ZM53.0018 106.785C53.0273 106.763 53.0561 106.74 53.0817 106.715C53.0977 106.737 53.1137 106.759 53.1328 106.785H53.0049H53.0018Z" fill="url(#paint4_linear_687_62)"/>
<path d="M98.8346 89.0627C98.7483 88.5447 98.1312 88.3145 97.6132 88.193C93.0122 87.1027 88.4143 86.0124 83.8133 84.9221C82.7774 84.6759 81.6167 84.3914 80.5616 84.6919C79.5064 84.9925 78.3586 85.5104 77.2747 85.9101C74.899 86.783 72.5234 87.6559 70.1477 88.5288C69.601 88.7302 68.9423 89.1043 69.0223 89.6798C69.0862 90.1434 69.5946 90.38 70.0358 90.5367C74.3523 92.0842 78.6655 93.6286 82.982 95.1761C83.7462 95.4511 84.5359 95.7293 85.3481 95.6941C86.1698 95.6589 86.9435 95.3072 87.6917 94.9587C91.0586 93.3984 94.4286 91.838 97.7954 90.2777C98.3102 90.0379 98.9177 89.6478 98.841 89.0851C98.841 89.0787 98.841 89.0691 98.8378 89.0627H98.8346Z" fill="url(#paint5_linear_687_62)"/>
<path d="M81.3046 96.7974C81.2599 96.7175 81.2055 96.644 81.1416 96.5768C80.8634 96.2859 80.4733 96.1356 80.096 95.9917C77.2216 94.911 74.3503 93.8303 71.4759 92.7496C69.7142 92.0877 67.93 91.4258 66.0723 91.0997C65.1419 90.9366 64.1635 90.8343 63.2203 90.9239C62.2898 91.0134 61.3946 91.4834 60.5089 91.7999C56.5953 93.2068 52.6817 94.6136 48.7713 96.0237C48.3781 96.1644 47.9432 96.3434 47.7738 96.7239C47.6043 97.1044 47.777 97.568 48.0743 97.859C48.3717 98.1531 48.7713 98.313 49.1582 98.4665C52.9823 99.998 56.7296 101.731 60.3746 103.653C61.7079 104.353 63.1052 105.101 64.6111 105.05C65.7174 105.012 66.7566 104.541 67.7638 104.078C72.0866 102.089 76.4031 100.1 80.7259 98.1116C80.9529 98.006 81.1927 97.8909 81.3334 97.6831C81.5061 97.4209 81.4645 97.0756 81.3078 96.8006L81.3046 96.7974ZM60.4162 95.8414V95.8286C60.4162 95.8286 60.4258 95.8318 60.429 95.835C60.4226 95.835 60.4194 95.8414 60.4162 95.8414Z" fill="url(#paint6_linear_687_62)"/>
<path d="M106.986 105.607C106.887 105.479 106.708 105.386 106.548 105.329C106.219 105.204 105.851 105.066 105.455 104.923C101.755 103.548 95.4789 101.278 92.3966 100.12C90.5549 99.4262 88.6749 98.7324 86.7117 98.4702C84.4671 98.1729 82.9995 98.7388 81.0044 99.666C77.078 101.495 73.1644 103.359 69.27 105.265C68.9758 105.409 68.6689 105.562 68.5122 105.863C68.4387 106.006 68.4131 106.176 68.4643 106.326C68.5602 106.611 68.8288 106.675 69.0782 106.716C70.1013 106.889 71.1469 106.892 72.186 106.892C73.3307 106.892 74.5521 106.924 75.8342 106.972H105.57C105.883 106.803 106.19 106.62 106.487 106.419C106.599 106.345 106.708 106.269 106.807 106.189C106.922 106.099 107.037 105.984 107.053 105.84C107.063 105.751 107.034 105.674 106.983 105.604L106.986 105.607ZM75.3034 106.499C75.3034 106.46 75.3098 106.422 75.313 106.381C75.3194 106.419 75.3226 106.46 75.3258 106.499C75.3194 106.499 75.3098 106.499 75.3034 106.499ZM80.7006 106.496C80.7006 106.496 80.6878 106.483 80.6814 106.473C80.6942 106.48 80.707 106.48 80.7198 106.483C80.7134 106.486 80.707 106.492 80.7006 106.496ZM85.6214 106.793C85.6214 106.793 85.631 106.767 85.6374 106.755C85.647 106.767 85.6597 106.777 85.6693 106.793H85.6246H85.6214ZM99.6866 103.126C99.6866 103.126 99.6866 103.113 99.6866 103.106C99.6866 103.097 99.6834 103.09 99.6834 103.078C99.7058 103.084 99.7282 103.09 99.7538 103.094C99.7314 103.103 99.709 103.113 99.6834 103.126H99.6866Z" fill="url(#paint7_linear_687_62)"/>
<path d="M33.8325 85.4602C31.4665 77.6618 33.6822 68.3382 39.4951 60.5015C45.5669 52.313 54.4236 47.8047 64.4378 47.8047C74.452 47.8047 82.8515 51.9901 88.8881 59.2865C95.0303 66.7108 97.5114 76.418 95.6985 85.9206L89.3294 84.2388C90.8609 76.2166 88.6387 68.7635 83.459 62.4998C78.3847 56.3641 72.4344 54.3913 64.441 54.3913C56.4475 54.3913 50.1903 56.6294 45.0937 63.5006C40.2752 69.9977 38.2353 77.8312 40.1249 84.0597L33.8357 85.457L33.8325 85.4602Z" fill="#F5F4DD"/>
<path d="M90.6164 79.0966C90.6164 80.9191 90.4278 82.6968 90.0697 84.4106C81.0659 82.1597 70.3355 79.4802 68.1005 78.9175C64.1102 77.9167 61.3317 78.9175 61.3317 78.9175L39.257 84.2699C38.918 82.5977 38.7422 80.8679 38.7422 79.0966C38.7422 64.7723 50.3551 53.1562 64.6793 53.1562C79.0036 53.1562 90.6196 64.7691 90.6196 79.0966H90.6164Z" fill="url(#paint8_linear_687_62)"/>
<path d="M66.0802 0L86.3995 11.7695C86.3995 11.7695 20.9044 49.7959 20.6774 49.9334C20.4536 50.0709 20.3673 50.2116 20.3673 50.5377C20.3673 50.8639 20.4312 101.942 20.4312 102.415C20.4312 102.888 20.5943 103.266 21.4992 103.7C22.404 104.135 27.0626 106.965 27.0626 106.965H0V38.3333L66.0802 0Z" fill="#FBEF03"/>
<path d="M128.998 38.9674V106.969H101.788L105.488 104.917L107.54 103.778L108.464 103.267C108.464 103.267 108.941 103.014 108.941 102.487V50.3948C108.941 50.3948 108.883 50.1231 108.519 49.8929C108.154 49.6658 83.3555 35.332 83.3555 35.332L103.678 23.6328L128.726 38.2128C128.726 38.2128 128.995 38.3471 128.995 38.9674H128.998Z" fill="#068B4A"/>
<path d="M52.614 76.1444C52.614 76.1444 53.2055 76.771 52.6812 77.4009H58.7818C58.7818 77.4009 59.2901 77.2634 58.7818 77.0108C58.2734 76.7583 57.0488 77.4873 57.036 75.7575C57.02 74.0245 57.036 72.7328 57.036 72.7328C57.036 72.7328 56.6875 72.7935 56.6427 72.688C56.6075 72.6049 56.7962 72.4546 56.9689 72.3139C57.9057 71.5497 58.0432 71.3003 58.219 71.3707C58.4013 71.4442 58.3277 71.748 58.4524 72.2116C58.5164 72.445 58.6603 72.8287 59.9264 74.0501C60.259 74.3698 60.7066 74.7887 61.2597 75.2555C61.2597 75.2555 63.0918 77.4073 64.4827 77.4073H68.2236C68.2236 77.4073 68.6744 77.3274 68.2236 77.1419C67.7728 76.9565 67.4051 77.305 66.4874 76.6527C65.5666 75.9973 61.0647 71.6904 59.7985 70.2644C58.5356 68.8383 58.6954 69.4682 60.649 67.5338C62.6026 65.5994 64.1406 64.2117 64.5306 64.0231C64.9207 63.8345 65.3748 63.7066 65.3748 63.7066L64.9399 63.2014H61.6178C61.6178 63.2014 61.2405 63.3772 61.605 63.6554C61.9695 63.9336 62.0719 63.2653 62.0207 64.199C61.6914 65.107 57.0296 69.481 57.0296 69.481L57.0424 66.0758C57.0424 66.0758 56.729 66.063 56.7003 65.9383C56.6811 65.8552 56.793 65.7625 56.8537 65.7113C57.3749 65.2861 57.8833 64.9567 58.2446 64.5475C58.4141 64.3556 58.5228 64.2341 58.4812 64.151C58.3341 63.8472 56.3773 64.605 56.3102 64.4356C56.2718 64.3396 56.809 63.8792 57.5156 63.7289C57.992 63.6266 58.4109 63.697 58.542 63.454C58.6027 63.3389 58.5739 63.2046 58.542 63.115H55.4277C55.4821 63.3676 55.7698 64.7553 55.6292 64.9791C55.578 65.0622 55.514 65.0718 55.514 65.0718C55.514 65.0718 55.4181 65.0846 55.2966 64.9312C55.0856 64.6626 54.9321 61.8489 54.8969 61.1774C54.8969 61.1774 56.1439 61.6059 57.1031 60.0807C57.1031 60.0807 55.2998 59.5883 54.7211 60.8993C54.7211 60.8993 54.1903 58.8945 53.5221 58.1016C53.5221 58.1016 54.5197 60.8129 54.5293 62.1239C54.5293 62.1239 53.116 60.8385 51.1624 62.012C51.1624 62.012 52.889 63.3868 54.3886 62.466C54.3886 62.466 54.7786 63.2365 54.363 63.2461C53.9473 63.2589 51.6388 63.1694 52.6876 63.7257C53.2663 63.9208 54.4781 63.4604 54.4781 64.9376C54.4781 66.4147 54.6412 67.8376 54.1008 67.2588C53.5828 66.8304 52.3359 66.9807 52.3359 66.9807L52.1984 66.6769C52.1984 66.6769 52.1472 66.5266 52.5501 66.5266C52.9529 66.5266 53.7843 65.9831 54.1648 64.9887C54.1648 64.9887 52.3486 64.9248 52.0705 66.2868C52.0705 66.2868 50.3311 63.9176 50.0401 63.6522C49.7492 63.3868 50.1904 63.4508 50.3567 63.1726C50.5197 62.8944 50.7468 62.4916 50.6348 61.5835C50.6348 61.5835 49.2983 62.3285 49.6373 63.2717C49.6373 63.2717 47.5078 61.2798 48.8667 62.92C50.2288 64.5603 50.8075 65.0015 50.3151 64.9248C49.8227 64.848 49.0809 64.6594 48.3359 65.7305C48.3359 65.7305 49.9986 66.1973 50.4654 65.5419C50.9322 64.8864 51.8403 66.9903 51.8403 66.9903C51.8403 66.9903 51.2871 66.9135 50.8683 67.1022C50.4526 67.2908 52.9625 67.5818 52.6332 69.0046C52.6332 69.0046 52.128 69.0558 51.8626 68.6657C51.5973 68.2756 49.7588 68.6241 49.4166 69.1229C49.4166 69.1229 50.475 69.4107 50.9034 69.7752C51.3319 70.1397 52.2975 69.9127 52.403 69.4586C52.5085 69.0046 53.4421 71.6552 53.3462 73.1996C53.3462 73.1996 53.4773 73.6632 52.9178 73.222C52.3582 72.7807 51.869 72.234 50.1329 72.7679C50.1329 72.7679 51.6932 74.4817 52.8123 73.9222C53.5285 73.5833 53.4166 76.058 53.2503 75.6008C53.084 75.1436 52.614 74.6064 52.8762 75.588C53.1384 76.5696 52.4669 75.361 52.6012 76.1539L52.614 76.1444Z" fill="#383181"/>
<path d="M68.7207 77.4036H75.0259C75.0259 77.4036 75.5918 77.2182 75.0259 77.0679C74.4599 76.9176 73.6766 77.3077 73.3505 76.6554C73.0243 76.0032 72.9604 75.7634 72.9796 74.4812C73.0019 73.1991 72.9796 72.809 72.9796 72.809C72.9796 72.809 72.0108 72.8346 72.743 72.3006C73.4752 71.7634 74.6806 71.0664 74.6806 71.0664C74.6806 71.0664 73.133 70.5101 71.9148 71.3286C71.253 71.8338 71.0292 71.0696 72.6151 70.5996C72.6151 70.5996 72.8836 70.622 72.8932 70.1903C72.9028 69.666 72.8932 66.0369 72.8932 66.0369H71.755L71.7646 69.6212C71.7646 69.6212 72.3561 69.7171 72.0427 70.0816C71.7294 70.4461 71.3457 69.8226 71.3553 69.2759C71.3649 68.7291 71.3777 66.0337 71.3777 66.0337C71.3777 66.0337 71.3361 65.6916 71.7198 65.6788C72.1035 65.666 72.695 65.6788 72.695 65.6788C72.695 65.6788 72.8549 65.7428 73.1682 65.487C73.4816 65.2312 74.4791 64.2624 74.4791 64.2624C74.4791 64.2624 73.2162 64.0833 72.6215 64.3583C72.3976 64.4862 72.1898 63.9459 72.8964 63.8851C73.603 63.8244 74.7765 63.3352 76.2633 65.2536C77.75 67.172 76.9379 70.5037 74.3608 70.5932C74.3608 70.5932 75.5343 71.594 77.0019 70.6699C78.4695 69.7459 79.8124 68.3391 79.3967 65.7588C78.981 63.1753 75.595 63.1753 75.109 63.1753H71.4544V64.4926C71.4544 64.4926 72.2282 64.5598 71.7038 64.9594C71.1794 65.3591 71.1251 64.6525 70.8245 61.081C70.8245 61.081 72.0172 61.4423 73.197 59.9939C73.197 59.9939 71.2466 59.5047 70.7574 60.7741C70.7574 60.7741 70.5783 61.0075 70.556 60.6973C70.5336 60.3872 70.3002 59.2137 69.5967 58.4688C69.5967 58.4688 70.4217 61.4327 70.4888 61.9475C70.5559 62.4623 70.2202 61.9475 70.054 61.7461C69.8877 61.5446 68.4265 61.0426 67.1667 61.9027C67.1667 61.9027 69.1491 63.4854 69.8973 62.3472C69.8973 62.3472 70.3865 62.1361 70.4313 62.8044C70.476 63.4726 70.3865 63.2936 70.1403 63.2392C69.8941 63.1849 68.289 63.2296 68.289 63.2296C68.289 63.2296 68.4105 63.6421 69.6927 63.7764C70.4824 63.8435 70.3161 65.001 69.9612 64.9147C69.6031 64.8251 68.3114 65.3271 68.0428 66.1169C67.7742 66.9066 67.7678 65.4326 66.0445 63.6581C66.0445 63.6581 65.7919 63.4087 66.15 63.1721C66.5081 62.9355 66.7319 62.1969 66.5432 61.535C66.5432 61.535 65.3314 62.4207 65.6128 63.0826C65.8942 63.7444 63.8319 61.4359 64.4681 62.5678C65.1044 63.6997 67.0452 64.9211 66.3386 64.8987C65.632 64.8763 65.3091 64.6173 64.2188 65.7172C64.2188 65.7172 65.6448 66.0913 66.3706 65.5381C67.0964 64.985 66.9077 65.6405 67.1667 66.021C67.4257 66.4014 67.9053 67.1656 68.7143 66.5038C69.5232 65.8419 70.3161 64.4191 70.3066 65.4838L70.2938 66.5485C70.2938 66.5485 70.4856 67.9426 69.9357 67.2743C69.3857 66.6061 66.9589 67.0505 66.9589 67.0505C66.9589 67.0505 68.4745 67.7699 68.548 68.4382C68.6215 69.1064 68.2826 68.905 67.8062 68.63C67.3298 68.355 65.9421 68.7707 65.3602 69.1128C64.7783 69.4549 66.6839 69.2983 67.0229 69.7843C67.3618 70.2703 68.1675 69.3079 68.548 69.4677C68.9285 69.6276 69.3569 72.0352 69.2163 73.3238C69.2163 73.3238 68.2442 72.016 66.2235 72.7674C66.2235 72.7674 68.3466 74.6315 68.8422 73.5795C68.8422 73.5795 69.3377 73.1319 69.2578 75.5236C69.2578 75.5236 69.1491 75.904 69.0979 75.466C69.0468 75.028 68.6855 74.5356 68.7942 75.1718C68.9029 75.8081 69.1523 76.6746 68.8581 76.2813C68.564 75.8881 68.5736 76.0735 68.7079 77.4068L68.7207 77.4036Z" fill="#383181"/>
<path d="M41.2197 119.933V125.577H38.1055V112.797H41.2197V118.405L45.4786 112.797H49.1364L44.1837 119.061L49.3187 125.577H45.5138L41.2165 119.933H41.2197Z" fill="white"/>
<path d="M58.5845 120.989H56.6533V125.577H53.5391V112.797H58.5813C61.7116 112.797 63.2783 114.562 63.2783 116.912C63.2783 119.022 61.8394 120.989 58.5813 120.989H58.5845ZM58.3479 118.514C59.5853 118.514 60.1129 117.893 60.1129 116.912C60.1129 115.93 59.5853 115.31 58.3479 115.31H56.6533V118.514H58.3479Z" fill="white"/>
<path d="M72.2418 125.707C69.4921 125.707 67.3434 124.342 67.2539 121.755H70.5664C70.6559 122.737 71.2762 123.213 72.1491 123.213C73.022 123.213 73.6423 122.759 73.6423 122.011C73.6423 119.645 67.2507 120.918 67.2891 116.387C67.2891 113.966 69.2746 112.617 71.9509 112.617C74.6271 112.617 76.6126 114.002 76.7373 116.441H73.3705C73.3161 115.623 72.7342 115.13 71.8965 115.111C71.1515 115.092 70.5856 115.476 70.5856 116.275C70.5856 118.497 76.9036 117.496 76.9036 121.774C76.9036 123.923 75.2282 125.707 72.2418 125.707Z" fill="white"/>
<path d="M86.1559 125.707C83.4061 125.707 81.2575 124.342 81.168 121.755H84.4805C84.57 122.737 85.1903 123.213 86.0632 123.213C86.936 123.213 87.5563 122.759 87.5563 122.011C87.5563 119.645 81.1648 120.918 81.2031 116.387C81.2031 113.966 83.1887 112.617 85.8649 112.617C88.5411 112.617 90.5267 114.002 90.6514 116.441H87.2845C87.2302 115.623 86.6483 115.13 85.8106 115.111C85.0656 115.092 84.4996 115.476 84.4996 116.275C84.4996 118.497 90.8177 117.496 90.8177 121.774C90.8177 123.923 89.1422 125.707 86.1559 125.707Z" fill="white"/>
<defs>
<linearGradient id="paint0_linear_687_62" x1="52.865" y1="84.3632" x2="76.388" y2="84.3632" gradientUnits="userSpaceOnUse">
<stop stop-color="#256AB0"/>
<stop offset="1" stop-color="#98B8E7"/>
</linearGradient>
<linearGradient id="paint1_linear_687_62" x1="89.2099" y1="96.8886" x2="109.417" y2="96.8886" gradientUnits="userSpaceOnUse">
<stop stop-color="#256AB0"/>
<stop offset="1" stop-color="#98B8E7"/>
</linearGradient>
<linearGradient id="paint2_linear_687_62" x1="30.3825" y1="90.1855" x2="60.2396" y2="90.1855" gradientUnits="userSpaceOnUse">
<stop stop-color="#256AB0"/>
<stop offset="1" stop-color="#98B8E7"/>
</linearGradient>
<linearGradient id="paint3_linear_687_62" x1="19.551" y1="96.918" x2="40.0142" y2="96.918" gradientUnits="userSpaceOnUse">
<stop stop-color="#256AB0"/>
<stop offset="1" stop-color="#98B8E7"/>
</linearGradient>
<linearGradient id="paint4_linear_687_62" x1="23.6882" y1="102.539" x2="61.0208" y2="102.539" gradientUnits="userSpaceOnUse">
<stop stop-color="#256AB0"/>
<stop offset="1" stop-color="#98B8E7"/>
</linearGradient>
<linearGradient id="paint5_linear_687_62" x1="69.0159" y1="90.1306" x2="98.8442" y2="90.1306" gradientUnits="userSpaceOnUse">
<stop stop-color="#256AB0"/>
<stop offset="1" stop-color="#98B8E7"/>
</linearGradient>
<linearGradient id="paint6_linear_687_62" x1="47.7098" y1="97.9741" x2="81.4421" y2="97.9741" gradientUnits="userSpaceOnUse">
<stop stop-color="#256AB0"/>
<stop offset="1" stop-color="#98B8E7"/>
</linearGradient>
<linearGradient id="paint7_linear_687_62" x1="68.4387" y1="102.681" x2="107.057" y2="102.681" gradientUnits="userSpaceOnUse">
<stop stop-color="#256AB0"/>
<stop offset="1" stop-color="#98B8E7"/>
</linearGradient>
<linearGradient id="paint8_linear_687_62" x1="64.7337" y1="92.1419" x2="64.4651" y2="27.1904" gradientUnits="userSpaceOnUse">
<stop offset="0.21" stop-color="#F8B40B"/>
<stop offset="0.31" stop-color="#FCD20A"/>
<stop offset="0.37" stop-color="#FFE00A"/>
</linearGradient>
</defs>
</svg>
